PathFileType	4	(X/Y/Z)	c:/Users/goper/Files/vsCode/490R/osim_files/C07/C07_Slow_05.trc
DataRate	CameraRate	NumFrames	NumMarkers	Units                	OrigDataRate	OrigDataStartFrame	OrigNumFrames
250.00	250.00	11	36	mm	250.0	1153	3074
                Frame#	Time	LPSIS			LASIS			LTH1			LTH2			LTH3			LTH4			LLFE			LMFE			LSH1			LSH2			LSH3			LSH4			LLMAL			LMMAL			LCAL			LMTP5			LTOE			LMTP1			RPSIS			RASIS			RTH1			RTH2			RTH3			RTH4			RLFE			RMFE			RSH1			RSH2			RSH3			RSH4			RLMAL			RMMAL			RCAL			RMTP1			RTOE			RMTP5		
		X1	Y1	Z1	X2	Y2	Z2	X3	Y3	Z3	X4	Y4	Z4	X5	Y5	Z5	X6	Y6	Z6	X7	Y7	Z7	X8	Y8	Z8	X9	Y9	Z9	X10	Y10	Z10	X11	Y11	Z11	X12	Y12	Z12	X13	Y13	Z13	X14	Y14	Z14	X15	Y15	Z15	X16	Y16	Z16	X17	Y17	Z17	X18	Y18	Z18	X19	Y19	Z19	X20	Y20	Z20	X21	Y21	Z21	X22	Y22	Z22	X23	Y23	Z23	X24	Y24	Z24	X25	Y25	Z25	X26	Y26	Z26	X27	Y27	Z27	X28	Y28	Z28	X29	Y29	Z29	X30	Y30	Z30	X31	Y31	Z31	X32	Y32	Z32	X33	Y33	Z33	X34	Y34	Z34	X35	Y35	Z35	X36	Y36	Z36

1153	4.60800	392.45728	1000.36774	418.99527	223.70345	976.07452	501.15335	324.92862	791.67755	551.77142	0.00000	0.00000	0.00000	336.43155	639.19592	530.54523	0.00000	0.00000	0.00000	0.00000	0.00000	0.00000	386.12839	520.57471	505.96381	461.93915	339.35498	513.68079	490.08508	300.09061	499.56036	422.89267	336.08084	499.67813	0.00000	0.00000	0.00000	539.08850	126.80884	450.66193	509.01071	146.01044	378.40302	607.14349	71.59135	403.16492	427.48325	40.76401	477.00867	371.80463	50.17783	424.12372	401.96085	42.95561	370.41888	391.60941	1003.23425	319.96753	230.54855	975.07288	244.77635	244.60188	822.08551	182.44020	217.22458	748.11078	177.61804	0.00000	0.00000	0.00000	151.06686	768.87769	212.68712	137.35461	507.83908	219.92365	140.70119	511.45032	334.32889	134.56509	318.77612	205.82355	91.06158	284.68112	201.52856	78.50100	342.34503	204.28264	63.81032	300.27451	207.15591	44.73034	111.28390	241.57141	17.41905	131.95268	318.06992	68.16746	44.49107	293.48663	-131.49380	108.23181	312.42551	-144.97302	126.71137	262.41174	-107.20166	90.35026	205.55339
1154	4.61200	388.71469	1000.03522	418.56393	219.76903	975.84552	500.85397	321.31204	791.42999	551.33624	0.00000	0.00000	0.00000	332.85605	639.03857	530.22137	0.00000	0.00000	0.00000	0.00000	0.00000	0.00000	382.62573	520.47900	505.64886	459.50156	339.56580	513.50751	487.89758	300.61719	499.48813	420.41171	336.05978	499.38016	0.00000	0.00000	0.00000	538.30951	127.70297	450.76093	508.37277	146.69266	378.47873	606.85425	72.80532	403.23810	427.37582	40.82670	476.99661	371.70081	50.16020	424.10037	401.87021	42.93184	370.40781	387.87207	1003.02087	319.51489	226.49194	974.80914	244.60728	239.69827	821.70557	182.92834	213.30446	747.81403	177.78641	0.00000	0.00000	0.00000	147.19437	768.59338	212.87073	134.17772	507.34305	220.03000	137.89546	510.92413	334.36633	131.39603	318.33908	205.62529	87.66201	284.12421	201.73216	74.94905	341.75308	205.05557	60.55188	299.82849	207.26134	41.08162	110.62624	242.09550	13.86610	131.54552	318.40686	64.62811	44.01371	293.88425	-134.96439	108.16245	312.92450	-148.24277	126.53055	262.85025	-110.76958	89.98948	206.11487
1155	4.61600	384.79752	999.70135	418.23602	216.08128	975.55682	500.60428	317.67203	791.20715	551.13031	0.00000	0.00000	0.00000	329.33881	638.82245	529.80853	0.00000	0.00000	0.00000	0.00000	0.00000	0.00000	379.13931	520.21741	505.49533	456.91672	339.86273	513.45325	485.61334	301.20059	499.31903	417.74747	336.14630	499.11316	0.00000	0.00000	0.00000	537.53583	128.64110	450.90366	507.50467	147.42763	378.49466	606.41534	74.18652	403.41779	427.26202	40.90654	476.99399	371.54056	50.17513	424.10410	401.75342	42.96246	370.37241	383.96466	1002.72394	319.14407	222.58511	974.68616	244.46635	237.33719	822.34491	181.73166	209.37354	747.68896	177.89253	0.00000	0.00000	0.00000	143.25018	768.33447	213.14343	131.07288	506.88983	220.04752	134.91501	510.46008	334.42078	128.23878	317.78302	205.64270	84.37967	283.57556	201.85991	71.85394	341.25320	205.16942	57.39914	299.34787	207.49657	38.04203	109.92876	242.58022	10.80731	131.12677	318.76602	61.53481	43.47829	294.47708	-137.97517	107.80243	313.32794	-152.08829	125.77471	262.40985	-113.91515	89.41026	206.58540
1156	4.62000	380.85449	999.25525	417.86871	212.63211	975.06006	500.44699	313.82034	791.09662	550.69739	0.00000	0.00000	0.00000	325.48764	638.56812	529.35864	0.00000	0.00000	0.00000	0.00000	0.00000	0.00000	375.33865	520.08606	505.11465	454.13446	340.21155	513.28021	483.21970	301.84711	499.02512	415.18777	336.15671	498.81720	0.00000	0.00000	0.00000	536.73358	129.60631	450.98587	506.67633	148.14290	378.51514	605.89764	75.40887	403.65247	427.13040	40.99313	477.01248	371.38913	50.15476	424.09863	401.70950	42.96354	370.31647	379.98306	1002.47217	318.79468	218.48599	974.57349	244.06659	232.74802	821.61066	182.34451	205.30614	747.56055	178.04187	0.00000	0.00000	0.00000	139.40463	768.14771	213.38675	127.93458	506.39902	220.12291	131.84648	510.02454	334.50595	124.85816	317.02621	205.99213	81.36717	282.96640	202.04965	68.73134	340.59521	205.34659	54.26057	298.74216	207.74422	35.29064	109.28548	242.97070	8.07669	130.63951	319.22116	59.08931	43.09287	295.10666	-140.87131	107.22787	313.83871	-154.61571	124.93514	262.94882	-116.63908	88.63670	206.96553
1157	4.62400	377.05508	998.94550	417.45203	208.88776	974.78302	500.23322	309.98441	790.85956	550.17725	0.00000	0.00000	0.00000	321.70514	638.40454	529.10211	0.00000	0.00000	0.00000	0.00000	0.00000	0.00000	371.57663	520.02020	504.77097	451.45691	340.59915	513.07617	480.71039	302.48801	498.79623	412.53653	336.23169	498.53928	0.00000	0.00000	0.00000	535.75995	130.61848	451.16351	505.73569	148.90558	378.61127	605.53680	76.96662	403.73907	426.97119	41.05518	476.99081	371.24954	50.16195	424.06339	401.61624	42.97377	370.26700	375.94565	1002.19818	318.45081	214.51848	974.75000	243.59694	229.00645	822.00903	181.80028	201.08459	747.42126	178.18115	0.00000	0.00000	0.00000	135.16698	767.91681	213.65439	124.71952	505.84097	220.27295	128.81644	509.50647	334.51575	121.90719	316.50537	206.07329	78.47003	282.27985	202.23747	65.78667	340.00308	205.51489	51.38177	298.04919	208.02315	32.77603	108.56460	243.33865	5.52224	129.97435	319.75674	56.56089	42.40307	295.92645	-143.28020	106.45428	314.05191	-157.04839	124.16479	263.31119	-118.98685	87.45168	207.26353
1158	4.62800	373.09052	998.53699	417.01172	204.62584	974.92645	499.85657	306.25119	790.59784	549.92914	0.00000	0.00000	0.00000	317.87518	638.17035	528.63226	0.00000	0.00000	0.00000	0.00000	0.00000	0.00000	367.79486	519.73999	504.34433	448.61111	340.98682	512.93408	478.14111	302.93558	499.16675	409.83112	336.36642	498.33047	0.00000	0.00000	0.00000	534.94995	131.63428	451.28882	504.72925	149.74556	378.62982	605.04456	78.44191	403.96973	426.79407	41.16835	477.01566	371.10660	50.15847	424.04593	401.51923	42.97395	370.23169	371.87268	1001.93243	318.09265	210.34818	974.65027	243.16847	224.34709	821.38940	182.27147	197.01428	747.34222	178.28470	0.00000	0.00000	0.00000	131.06383	767.75134	213.89015	121.33421	505.28799	220.41496	125.67300	509.03827	334.65173	119.20786	315.94519	206.17351	75.76823	281.59152	202.49638	62.91026	339.26361	205.76007	48.61791	297.13779	208.39407	30.63425	107.70235	243.91447	3.23549	129.33104	320.15952	54.14657	41.56764	296.71353	-145.54874	105.43807	314.17236	-159.17191	123.04048	263.63321	-121.06897	86.13003	207.48262
1159	4.63200	369.37604	998.20721	416.43317	200.65071	974.70422	499.56708	302.36432	790.49750	549.40344	0.00000	0.00000	0.00000	313.94611	637.92798	528.07263	0.00000	0.00000	0.00000	0.00000	0.00000	0.00000	363.97565	519.55914	503.87698	445.76804	341.27905	512.82007	475.65125	303.51822	499.18832	407.13062	336.41351	498.04944	0.00000	0.00000	0.00000	533.90381	132.73090	451.42264	503.72025	150.60895	378.73389	604.47766	80.02493	404.02472	426.63950	41.26703	477.01382	370.96323	50.16425	423.97440	401.42480	43.00832	370.20224	367.74359	1001.66925	317.67239	206.12300	974.51257	243.19682	220.39333	821.83655	181.78368	192.73387	747.21210	178.44879	0.00000	0.00000	0.00000	126.88714	767.54156	214.27739	118.10645	504.83679	220.53882	122.69148	508.50961	334.75064	116.44801	315.29623	206.39119	73.17335	280.85593	202.82101	60.16199	338.47220	205.61996	45.99598	296.37473	208.64487	28.61245	106.83429	244.49460	1.12715	128.44600	320.56958	52.40071	41.12723	297.46738	-147.57704	104.24799	314.31311	-160.95755	121.75645	263.78732	-122.94315	84.79791	207.86536
1160	4.63600	364.88132	997.86090	416.22794	196.40010	974.75592	499.45416	298.53741	790.21057	549.06262	0.00000	0.00000	0.00000	310.10678	637.83002	527.68036	228.00037	710.53632	518.48737	0.00000	0.00000	0.00000	359.98737	519.56281	503.50919	442.94272	341.62357	512.63593	473.13312	304.21393	499.01837	404.43182	336.54245	497.77542	0.00000	0.00000	0.00000	532.88098	133.90451	451.59082	502.59827	151.51642	378.77332	603.90704	81.70808	404.22247	426.40390	41.40270	477.02087	370.80289	50.16607	423.94455	401.32285	43.01613	370.17987	363.61533	1001.44208	317.20129	201.86653	974.48950	242.91840	215.89391	821.76886	181.90889	188.36031	747.10101	178.63144	0.00000	0.00000	0.00000	122.57288	767.32440	214.47484	114.87380	504.32065	220.65804	119.49139	508.04605	334.83276	113.78082	314.63965	206.73917	70.74717	280.07913	203.13556	57.59769	337.73453	205.84177	43.50868	295.62592	208.89445	27.00534	106.11771	245.14473	-0.87222	127.79196	320.96832	51.67768	41.63841	297.97833	-148.99844	102.62655	314.61517	-162.59351	120.06247	263.78336	-124.24188	82.88646	208.01057
1161	4.64000	360.80005	997.61298	415.75555	192.71518	974.49414	498.91052	294.58511	790.09174	548.52600	0.00000	0.00000	0.00000	305.93854	637.57788	527.19257	0.00000	0.00000	0.00000	0.00000	0.00000	0.00000	355.99060	519.33508	503.12170	439.92114	342.20764	512.54236	470.48285	304.90894	499.02417	401.47491	336.72867	497.51254	0.00000	0.00000	0.00000	531.86932	135.07762	451.73987	501.52176	152.37157	378.87155	603.35754	83.47826	404.41901	426.20514	41.53400	477.00809	370.64746	50.19540	423.92307	401.22055	43.04051	370.14020	359.38574	1001.22632	316.75043	197.44434	974.55823	242.58067	210.97377	821.25134	182.40802	184.03764	747.06067	178.79872	0.00000	0.00000	0.00000	118.36902	767.07880	214.76369	111.56040	503.77005	220.77675	116.39620	507.48654	334.90094	111.53905	314.17355	206.80057	68.39632	279.17245	203.54080	54.82436	336.68512	206.68715	41.13429	294.61368	209.35004	25.87730	105.69745	245.45680	-2.57384	127.27203	321.42130	50.91457	41.83260	298.35492	-150.18214	100.60545	314.71286	-163.87511	118.19984	263.97452	-125.39980	81.26633	208.19466
1162	4.64400	356.67163	997.31158	415.23935	188.77496	974.29181	498.67886	290.50623	789.89136	548.02258	0.00000	0.00000	0.00000	301.95480	637.41638	526.87805	0.00000	0.00000	0.00000	0.00000	0.00000	0.00000	351.87823	519.19037	502.80515	436.99796	342.74622	512.36243	467.83459	305.61993	498.97540	398.67419	336.83960	497.23157	0.00000	0.00000	0.00000	530.69708	136.37332	451.85800	500.24585	153.41148	378.96698	602.67786	85.35098	404.51584	425.97180	41.69913	476.99878	370.49167	50.20056	423.87976	401.12314	43.03216	370.15500	355.19360	1001.00311	316.17996	193.24661	974.63263	242.02791	206.85318	821.66858	182.05165	179.52385	746.92139	179.04291	0.00000	0.00000	0.00000	113.76712	766.88397	214.99782	108.22951	503.13370	221.02066	113.03745	507.04932	334.98941	109.21869	313.48685	207.16849	66.26295	278.24020	203.96078	52.40062	335.71555	207.04135	38.97561	293.63599	209.74496	24.50552	104.82847	246.19710	-4.16809	126.37304	321.71829	50.55172	41.93888	298.57562	-150.95500	98.48664	314.95148	-165.16257	115.88201	264.18365	-126.22007	79.17754	208.44635
1163	4.64800	352.54849	997.10840	414.68912	184.75275	974.12573	498.40833	286.61209	789.80408	547.62042	0.00000	0.00000	0.00000	297.81317	637.27637	526.40228	0.00000	0.00000	0.00000	0.00000	0.00000	0.00000	347.82230	518.98523	502.58847	433.86569	343.22839	512.26886	465.13446	306.35675	498.96555	395.66202	337.07892	497.06271	0.00000	0.00000	0.00000	529.59125	137.62260	452.05951	499.07477	154.36678	379.02621	602.00940	87.22594	404.67657	425.71109	41.85518	477.04984	370.33102	50.22475	423.84171	401.03995	43.07107	370.15176	350.87881	1000.88745	315.62158	188.74384	974.53339	241.87573	202.24556	821.61145	182.12990	175.12335	746.78656	179.24033	0.00000	0.00000	0.00000	109.42034	766.73035	215.22328	104.93027	502.52441	221.25021	109.85521	506.62683	334.99521	107.02408	312.90274	207.58257	64.15600	277.31833	204.39230	50.11169	334.75427	207.44939	36.93271	292.56775	210.14745	23.72322	104.19720	246.57275	-4.97890	125.34551	322.20819	50.32197	41.78549	298.83899	-151.76520	95.91646	315.16312	-166.22227	113.34158	264.43161	-126.93836	77.34019	208.72682
